<svg height='300px' width='300px'  fill="#000000" xmlns="http://www.w3.org/2000/svg" viewBox="0 0 64 64" x="0px" y="0px"><path d="M5,29H7.121l3.887,30.128A1,1,0,0,0,12,60H35.54A5.983,5.983,0,0,0,40,62h1.566a7.1,7.1,0,0,0,3.164-.747,5.1,5.1,0,0,1,4.54,0A7.1,7.1,0,0,0,52.434,62H54a6.006,6.006,0,0,0,6-6V50a6.006,6.006,0,0,0-6-6H52.434a7.1,7.1,0,0,0-3.164.747,5.1,5.1,0,0,1-4.54,0,7.078,7.078,0,0,0-1.8-.6L44.879,29H47a1,1,0,0,0,1-1V24a1,1,0,0,0-1-1H43V20a1,1,0,0,0-.293-.707L38,14.586V11.48l1.516-1.212,2.589,5.179,1.79-.894L41.113,8.99,42.35,8H46a1,1,0,0,0,1-1V3a1,1,0,0,0-1-1H36a9.011,9.011,0,0,0-9,9,1,1,0,0,0,1,1h2v2.586l-2.707,2.707A1,1,0,0,0,27,18v5H25V15a.99.99,0,0,0-.073-.361,1.037,1.037,0,0,0-.062-.113,1.115,1.115,0,0,0-.084-.151L21,9.65V3a1,1,0,0,0-1-1H14a1,1,0,0,0-1,1V9.65L9.219,14.375a1.115,1.115,0,0,0-.084.151,1.037,1.037,0,0,0-.062.113A.99.99,0,0,0,9,15v8H5a1,1,0,0,0-1,1v4A1,1,0,0,0,5,29ZM54,60H52.434a5.1,5.1,0,0,1-2.269-.536,7.113,7.113,0,0,0-6.33,0A5.1,5.1,0,0,1,41.566,60H40a4,4,0,0,1-4-4V54.46A5.969,5.969,0,0,0,40,56h1.566a7.1,7.1,0,0,0,3.164-.747,5.1,5.1,0,0,1,4.54,0A7.1,7.1,0,0,0,52.434,56H54a5.969,5.969,0,0,0,4-1.54V56A4,4,0,0,1,54,60ZM50.165,46.536A5.1,5.1,0,0,1,52.434,46H54a4,4,0,0,1,0,8H52.434a5.1,5.1,0,0,1-2.269-.536,7.113,7.113,0,0,0-6.33,0A5.1,5.1,0,0,1,41.566,54H40a4,4,0,0,1,0-8h1.566a5.1,5.1,0,0,1,2.269.536A7.117,7.117,0,0,0,50.165,46.536ZM40.927,44H40a6.006,6.006,0,0,0-6,6v6a5.976,5.976,0,0,0,.35,2H12.879L9.137,29H14V47a4,4,0,0,0,4,4H28a4,4,0,0,0,4-4V38.618l2.612,1.306a3.187,3.187,0,0,0,4.278-1.467,3.237,3.237,0,0,0,.183-2.475,3.2,3.2,0,0,0-1.62-1.874L32,31.382V29H42.863ZM28,25h2v7a1,1,0,0,0,.553.9l6,3a1.208,1.208,0,0,1,.615.711,1.286,1.286,0,0,1-.1,1,1.168,1.168,0,0,1-1.569.523l-4.06-2.03A1,1,0,0,0,30,37V47a2,2,0,0,1-2,2V40H26v9H24V40H22v9H20V40H18v9a2,2,0,0,1-2-2V25H28Zm18,2H32V25H46ZM45,6H43V4h2ZM36,4h5V6.52L36.649,10H29.071A7.011,7.011,0,0,1,36,4Zm0,8v2H32V12Zm-7,6.414L31.414,16h5.172L41,20.414V23H29ZM14.48,11h5.04l2.4,3H12.08ZM15,4h4V9H15ZM11,16H23v7H11ZM6,25h8v2H6Z"></path><rect x="53" y="48" width="2" height="2"></rect><rect x="43" y="48" width="2" height="2"></rect><rect x="39" y="49" width="2" height="2"></rect><rect x="49" y="49" width="2" height="2"></rect></svg>