<?xml version="1.0" encoding="UTF-8" standalone="no"?>
<svg
   xmlns:dc="http://purl.org/dc/elements/1.1/"
   xmlns:cc="http://creativecommons.org/ns#"
   xmlns:rdf="http://www.w3.org/1999/02/22-rdf-syntax-ns#"
   xmlns:svg="http://www.w3.org/2000/svg"
   xmlns="http://www.w3.org/2000/svg"
   xmlns:sodipodi="http://sodipodi.sourceforge.net/DTD/sodipodi-0.dtd"
   xmlns:inkscape="http://www.inkscape.org/namespaces/inkscape"
   height="300px"
   width="300px"
   fill="#000000"
   viewBox="0 0 64 64"
   x="0px"
   y="0px"
   version="1.1"
   id="svg12"
   sodipodi:docname="logo.svg"
   inkscape:version="0.92.4 5da689c313, 2019-01-14">
  <metadata
     id="metadata18">
    <rdf:RDF>
      <cc:Work
         rdf:about="">
        <dc:format>image/svg+xml</dc:format>
        <dc:type
           rdf:resource="http://purl.org/dc/dcmitype/StillImage" />
      </cc:Work>
    </rdf:RDF>
  </metadata>
  <defs
     id="defs16" />
  <sodipodi:namedview
     pagecolor="#ffffff"
     bordercolor="#666666"
     borderopacity="1"
     objecttolerance="10"
     gridtolerance="10"
     guidetolerance="10"
     inkscape:pageopacity="0"
     inkscape:pageshadow="2"
     inkscape:window-width="1920"
     inkscape:window-height="1035"
     id="namedview14"
     showgrid="false"
     inkscape:zoom="0.78666667"
     inkscape:cx="-90.075971"
     inkscape:cy="285.69106"
     inkscape:window-x="0"
     inkscape:window-y="25"
     inkscape:window-maximized="1"
     inkscape:current-layer="svg12" />
  <path
     style="stroke:none;stroke-width:0.99999994;stroke-opacity:1"
     d="m 5,32.891269 h 2.121 l 3.887,22.59128 c 0.06437,0.465806 0.489113,0.814507 0.992,0.814401 h 23.54 c 1.134124,1.187267 2.756393,1.86669 4.46,1.867894 h 1.566 c 1.098246,-8.79e-4 2.181302,-0.239692 3.164,-0.697659 1.429887,-0.663778 3.110113,-0.663778 4.54,0 0.982698,0.457967 2.065754,0.69678 3.164,0.697659 H 54 c 3.312338,-0.0031 5.996693,-2.510133 6,-5.60368 v -5.603678 c -0.0033,-3.093547 -2.687662,-5.600593 -6,-5.603682 h -1.566 c -1.098246,8.78e-4 -2.181302,0.23969 -3.164,0.697657 -1.429887,0.663778 -3.110113,0.663778 -4.54,0 -0.570353,-0.26139 -1.175791,-0.449871 -1.8,-0.560365 l 1.949,-8.599827 H 47 c 0.552284,0 0.999998,-0.418141 1,-0.933944 v -3.735788 c -2e-6,-0.515804 -0.447716,-0.933944 -1,-0.933944 h -4 v -8.348511 c -5.8e-5,-0.247677 -0.105451,-0.48519 -0.293,-0.660297 L 38,13.882695 V 10.98186 l 1.516,-1.131945 2.589,4.836909 1.79,-0.834947 L 41.113,8.6563312 42.35,7.7317239 H 46 c 0.552285,0 1,-0.4181422 1,-0.9339467 V 3.0619904 C 47,2.546186 46.552285,2.1280439 46,2.1280439 H 36 c -4.96805,0.00566 -8.993938,3.7656257 -9,8.4055191 -1e-6,0.515805 0.447715,0.933948 1,0.933948 h 2 v 2.415184 l -2.707,2.528197 C 27.105451,16.586 27.000057,16.823513 27,17.07119 V 27.287593 H 25 V 14.26935 c -0.0015,-0.115661 -0.0263,-0.230025 -0.073,-0.337156 -0.0183,-0.03634 -0.03901,-0.07159 -0.062,-0.105533 -0.02405,-0.04897 -0.05214,-0.09612 -0.084,-0.141029 L 21,9.2727359 V 3.0619904 C 21,2.546186 20.552285,2.1280439 20,2.1280439 h -6 c -0.552285,0 -1,0.4181421 -1,0.9339465 V 9.2727359 L 9.219,13.685632 c -0.031864,0.04491 -0.059948,0.09206 -0.084,0.141029 -0.02299,0.03394 -0.043696,0.06919 -0.062,0.105533 C 9.0263,14.039325 9.0015383,14.153689 9,14.26935 V 27.287593 H 5 c -0.5522836,0 -0.9999984,0.41814 -1,0.933944 v 3.735788 c 1.6e-6,0.515803 0.4585628,0.825027 1,0.933944 z"
     id="path856"
     inkscape:connector-curvature="0"
     sodipodi:nodetypes="sccccccccccccccccccsccsccccccccccssssccscccccccccccssssccccccsccs" />
  <path
     style="fill:#ffe40a;fill-opacity:1;stroke:#ffe40a;stroke-width:0.99999994;stroke-opacity:1"
     d="m 54,56.29695 h -1.566 a 5.1,4.7631282 0 0 1 -2.269,-0.500593 7.113,6.6431627 0 0 0 -6.33,0 5.1,4.7631282 0 0 1 -2.269,0.500593 H 40 a 4,3.7357868 0 0 1 -4,-3.735786 v -1.438277 a 5.969,5.5747277 0 0 0 4,1.438277 h 1.566 a 7.1,6.6310213 0 0 0 3.164,-0.697657 5.1,4.7631282 0 0 1 4.54,0 7.1,6.6310213 0 0 0 3.164,0.697657 H 54 a 5.969,5.5747277 0 0 0 4,-1.438277 v 1.438277 a 4,3.7357868 0 0 1 -4,3.735786 z"
     id="path854"
     inkscape:connector-curvature="0" />
  <path
     style="fill:#ffe40a;fill-opacity:1;stroke:#ffe40a;stroke-width:0.99999994;stroke-opacity:1"
     d="m 50.165,43.722292 a 5.1,4.7631282 0 0 1 2.269,-0.500594 H 54 a 4,3.7357868 0 0 1 0,7.471572 h -1.566 a 5.1,4.7631282 0 0 1 -2.269,-0.500595 7.113,6.6431627 0 0 0 -6.33,0 5.1,4.7631282 0 0 1 -2.269,0.500595 H 40 a 4,3.7357868 0 0 1 0,-7.471572 h 1.566 a 5.1,4.7631282 0 0 1 2.269,0.500594 7.117,6.6468984 0 0 0 6.33,0 z"
     id="path852"
     inkscape:connector-curvature="0" />
  <path
     style="fill:#ab8dff;fill-opacity:1;stroke:#ab8dff;stroke-width:4.68749952;stroke-opacity:1"
     d="m 168.75,18.730469 c -16.30465,0.01861 -30.12949,11.199025 -32.48047,26.267578 h 12.61914 v 26.267578 h -1.63476 L 135.9375,81.833984 v 42.076176 h 56.25 V 90.589844 L 171.49609,71.265625 h -0.84765 V 44.998047 h 1.14453 L 192.1875,29.763672 V 18.730469 Z m 24.8125,0 v 10.027045 h 17.375 V 18.730469 Z"
     transform="scale(0.21333333)"
     id="path844"
     inkscape:connector-curvature="0"
     sodipodi:nodetypes="ccccccccccccccccccccc" />
  <path
     style="fill:#00d31a;fill-opacity:1;stroke:#00d31a;stroke-width:4.68749952;stroke-opacity:1"
     d="m 70.3125,18.730469 v 25.890625 c 0,0 -18.75,21.366075 -18.75,22.644531 v 56.644535 h 56.25 c 0,0 0.1238,-54.857074 0,-56.644535 -0.10128,-1.462339 -18.75,-22.644531 -18.75,-22.644531 V 18.730469 Z"
     transform="scale(0.21333333)"
     id="path836"
     inkscape:connector-curvature="0"
     sodipodi:nodetypes="cczccsccc" />
</svg>
